<svg width="20" height="20" viewBox="0 0 20 20" fill="none" xmlns="http://www.w3.org/2000/svg">
<mask id="path-1-inside-1_6200_25527" fill="white">
<path d="M8.75 16.875C8.75 17.0408 8.68415 17.1997 8.56694 17.3169C8.44973 17.4342 8.29076 17.5 8.125 17.5H3.75C3.41848 17.5 3.10054 17.3683 2.86612 17.1339C2.6317 16.8995 2.5 16.5815 2.5 16.25V3.75C2.5 3.41848 2.6317 3.10054 2.86612 2.86612C3.10054 2.6317 3.41848 2.5 3.75 2.5H8.125C8.29076 2.5 8.44973 2.56585 8.56694 2.68306C8.68415 2.80027 8.75 2.95924 8.75 3.125C8.75 3.29076 8.68415 3.44973 8.56694 3.56694C8.44973 3.68415 8.29076 3.75 8.125 3.75H3.75V16.25H8.125C8.29076 16.25 8.44973 16.3158 8.56694 16.4331C8.68415 16.5503 8.75 16.7092 8.75 16.875ZM17.3172 9.55781L14.1922 6.43281C14.0749 6.31554 13.9159 6.24965 13.75 6.24965C13.5841 6.24965 13.4251 6.31554 13.3078 6.43281C13.1905 6.55009 13.1247 6.70915 13.1247 6.875C13.1247 7.04085 13.1905 7.19991 13.3078 7.31719L15.3664 9.375H8.125C7.95924 9.375 7.80027 9.44085 7.68306 9.55806C7.56585 9.67527 7.5 9.83424 7.5 10C7.5 10.1658 7.56585 10.3247 7.68306 10.4419C7.80027 10.5592 7.95924 10.625 8.125 10.625H15.3664L13.3078 12.6828C13.1905 12.8001 13.1247 12.9591 13.1247 13.125C13.1247 13.2909 13.1905 13.4499 13.3078 13.5672C13.4251 13.6845 13.5841 13.7503 13.75 13.7503C13.9159 13.7503 14.0749 13.6845 14.1922 13.5672L17.3172 10.4422C17.3753 10.3841 17.4214 10.3152 17.4529 10.2393C17.4843 10.1635 17.5005 10.0821 17.5005 10C17.5005 9.91787 17.4843 9.83654 17.4529 9.76066C17.4214 9.68479 17.3753 9.61586 17.3172 9.55781Z"/>
</mask>
<path d="M8.75 16.875C8.75 17.0408 8.68415 17.1997 8.56694 17.3169C8.44973 17.4342 8.29076 17.5 8.125 17.5H3.75C3.41848 17.5 3.10054 17.3683 2.86612 17.1339C2.6317 16.8995 2.5 16.5815 2.5 16.25V3.75C2.5 3.41848 2.6317 3.10054 2.86612 2.86612C3.10054 2.6317 3.41848 2.5 3.75 2.5H8.125C8.29076 2.5 8.44973 2.56585 8.56694 2.68306C8.68415 2.80027 8.75 2.95924 8.75 3.125C8.75 3.29076 8.68415 3.44973 8.56694 3.56694C8.44973 3.68415 8.29076 3.75 8.125 3.75H3.75V16.25H8.125C8.29076 16.25 8.44973 16.3158 8.56694 16.4331C8.68415 16.5503 8.75 16.7092 8.75 16.875ZM17.3172 9.55781L14.1922 6.43281C14.0749 6.31554 13.9159 6.24965 13.75 6.24965C13.5841 6.24965 13.4251 6.31554 13.3078 6.43281C13.1905 6.55009 13.1247 6.70915 13.1247 6.875C13.1247 7.04085 13.1905 7.19991 13.3078 7.31719L15.3664 9.375H8.125C7.95924 9.375 7.80027 9.44085 7.68306 9.55806C7.56585 9.67527 7.5 9.83424 7.5 10C7.5 10.1658 7.56585 10.3247 7.68306 10.4419C7.80027 10.5592 7.95924 10.625 8.125 10.625H15.3664L13.3078 12.6828C13.1905 12.8001 13.1247 12.9591 13.1247 13.125C13.1247 13.2909 13.1905 13.4499 13.3078 13.5672C13.4251 13.6845 13.5841 13.7503 13.75 13.7503C13.9159 13.7503 14.0749 13.6845 14.1922 13.5672L17.3172 10.4422C17.3753 10.3841 17.4214 10.3152 17.4529 10.2393C17.4843 10.1635 17.5005 10.0821 17.5005 10C17.5005 9.91787 17.4843 9.83654 17.4529 9.76066C17.4214 9.68479 17.3753 9.61586 17.3172 9.55781Z" fill="#343330"/>
<path d="M2.5 16.25L0.5 16.25L2.5 16.25ZM3.75 2.5L3.75 0.5L3.75 2.5ZM3.75 3.75V1.75H1.75V3.75H3.75ZM3.75 16.25H1.75V18.25H3.75V16.25ZM17.3172 9.55781L15.903 10.972L15.9038 10.9728L17.3172 9.55781ZM14.1922 6.43281L15.6064 5.0186L14.1922 6.43281ZM13.75 6.24965L13.75 4.24965L13.75 6.24965ZM13.3078 7.31719L11.8936 8.7314L11.8939 8.73167L13.3078 7.31719ZM15.3664 9.375V11.375H20.1961L16.7804 7.96052L15.3664 9.375ZM15.3664 10.625L16.7804 12.0395L20.1961 8.625H15.3664V10.625ZM13.3078 12.6828L11.8939 11.2683L11.8936 11.2686L13.3078 12.6828ZM14.1922 13.5672L15.6064 14.9814L14.1922 13.5672ZM17.3172 10.4422L15.9038 9.02719L15.903 9.02797L17.3172 10.4422ZM6.75 16.875C6.75 16.5103 6.89487 16.1606 7.15273 15.9027L9.98116 18.7312C10.4734 18.2389 10.75 17.5712 10.75 16.875H6.75ZM7.15273 15.9027C7.41059 15.6449 7.76033 15.5 8.125 15.5V19.5C8.82119 19.5 9.48887 19.2234 9.98116 18.7312L7.15273 15.9027ZM8.125 15.5H3.75V19.5H8.125V15.5ZM3.75 15.5C3.94891 15.5 4.13968 15.579 4.28033 15.7197L1.4519 18.5481C2.0614 19.1576 2.88805 19.5 3.75 19.5V15.5ZM4.28033 15.7197C4.42098 15.8603 4.5 16.0511 4.5 16.25L0.5 16.25C0.5 17.112 0.84241 17.9386 1.4519 18.5481L4.28033 15.7197ZM4.5 16.25V3.75H0.5V16.25H4.5ZM4.5 3.75C4.5 3.94891 4.42098 4.13968 4.28033 4.28033L1.4519 1.4519C0.84241 2.0614 0.5 2.88805 0.5 3.75H4.5ZM4.28033 4.28033C4.13968 4.42098 3.94891 4.5 3.75 4.5L3.75 0.5C2.88805 0.5 2.0614 0.842409 1.4519 1.4519L4.28033 4.28033ZM3.75 4.5H8.125V0.5H3.75V4.5ZM8.125 4.5C7.76033 4.5 7.41059 4.35513 7.15273 4.09727L9.98116 1.26884C9.48887 0.776563 8.8212 0.5 8.125 0.5V4.5ZM7.15273 4.09727C6.89487 3.83941 6.75 3.48967 6.75 3.125H10.75C10.75 2.42881 10.4734 1.76113 9.98116 1.26884L7.15273 4.09727ZM6.75 3.125C6.75 2.76033 6.89487 2.41059 7.15273 2.15273L9.98116 4.98116C10.4734 4.48887 10.75 3.82119 10.75 3.125H6.75ZM7.15273 2.15273C7.41059 1.89487 7.76033 1.75 8.125 1.75V5.75C8.8212 5.75 9.48887 5.47344 9.98116 4.98116L7.15273 2.15273ZM8.125 1.75H3.75V5.75H8.125V1.75ZM1.75 3.75V16.25H5.75V3.75H1.75ZM3.75 18.25H8.125V14.25H3.75V18.25ZM8.125 18.25C7.76033 18.25 7.41059 18.1051 7.15273 17.8473L9.98116 15.0188C9.48887 14.5266 8.82119 14.25 8.125 14.25V18.25ZM7.15273 17.8473C6.89487 17.5894 6.75 17.2397 6.75 16.875H10.75C10.75 16.1788 10.4734 15.5111 9.98116 15.0188L7.15273 17.8473ZM18.7314 8.1436L15.6064 5.0186L12.778 7.84703L15.903 10.972L18.7314 8.1436ZM15.6064 5.0186C15.1141 4.52625 14.4463 4.24965 13.75 4.24965V8.24965C13.3854 8.24965 13.0358 8.10483 12.778 7.84703L15.6064 5.0186ZM13.75 4.24965C13.0537 4.24965 12.386 4.52625 11.8936 5.0186L14.722 7.84703C14.4642 8.10483 14.1146 8.24965 13.75 8.24965L13.75 4.24965ZM11.8936 5.0186C11.4013 5.51095 11.1247 6.17871 11.1247 6.875H15.1247C15.1247 7.23958 14.9798 7.58923 14.722 7.84703L11.8936 5.0186ZM11.1247 6.875C11.1247 7.57129 11.4013 8.23905 11.8936 8.7314L14.722 5.90297C14.9798 6.16077 15.1247 6.51042 15.1247 6.875H11.1247ZM11.8939 8.73167L13.9525 10.7895L16.7804 7.96052L14.7218 5.90271L11.8939 8.73167ZM15.3664 7.375H8.125V11.375H15.3664V7.375ZM8.125 7.375C7.42881 7.375 6.76113 7.65156 6.26885 8.14384L9.09727 10.9723C8.83941 11.2301 8.48967 11.375 8.125 11.375V7.375ZM6.26885 8.14384C5.77656 8.63613 5.5 9.30381 5.5 10H9.5C9.5 10.3647 9.35513 10.7144 9.09727 10.9723L6.26885 8.14384ZM5.5 10C5.5 10.6962 5.77656 11.3639 6.26885 11.8562L9.09727 9.02773C9.35514 9.28559 9.5 9.63533 9.5 10H5.5ZM6.26885 11.8562C6.76113 12.3484 7.42881 12.625 8.125 12.625V8.625C8.48967 8.625 8.83941 8.76986 9.09727 9.02773L6.26885 11.8562ZM8.125 12.625H15.3664V8.625H8.125V12.625ZM13.9525 9.21052L11.8939 11.2683L14.7218 14.0973L16.7804 12.0395L13.9525 9.21052ZM11.8936 11.2686C11.4013 11.7609 11.1247 12.4287 11.1247 13.125H15.1247C15.1247 13.4896 14.9798 13.8392 14.722 14.097L11.8936 11.2686ZM11.1247 13.125C11.1247 13.8213 11.4013 14.4891 11.8936 14.9814L14.722 12.153C14.9798 12.4108 15.1247 12.7604 15.1247 13.125H11.1247ZM11.8936 14.9814C12.3859 15.4737 13.0537 15.7503 13.75 15.7503V11.7503C14.1146 11.7503 14.4642 11.8952 14.722 12.153L11.8936 14.9814ZM13.75 15.7503C14.4463 15.7503 15.1141 15.4737 15.6064 14.9814L12.778 12.153C13.0358 11.8952 13.3854 11.7503 13.75 11.7503V15.7503ZM15.6064 14.9814L18.7314 11.8564L15.903 9.02797L12.778 12.153L15.6064 14.9814ZM18.7306 11.8572C18.9747 11.6134 19.1683 11.3239 19.3004 11.0052L15.6053 9.47346C15.6745 9.30653 15.7759 9.15489 15.9038 9.02719L18.7306 11.8572ZM19.3004 11.0052C19.4325 10.6865 19.5005 10.3449 19.5005 10H15.5005C15.5005 9.81932 15.5361 9.64039 15.6053 9.47346L19.3004 11.0052ZM19.5005 10C19.5005 9.65505 19.4325 9.31347 19.3004 8.99478L15.6053 10.5265C15.5361 10.3596 15.5005 10.1807 15.5005 10H19.5005ZM19.3004 8.99478C19.1683 8.67611 18.9747 8.3866 18.7306 8.14281L15.9038 10.9728C15.7759 10.8451 15.6745 10.6935 15.6053 10.5265L19.3004 8.99478Z" fill="#1F2937" mask="url(#path-1-inside-1_6200_25527)"/>
</svg>
