<svg width="20" height="20" viewBox="0 0 20 20" fill="none" xmlns="http://www.w3.org/2000/svg">
<path fill-rule="evenodd" clip-rule="evenodd" d="M13.8135 18.6406H6.46018C3.59268 18.6406 1.66602 16.6281 1.66602 13.6331V6.70476C1.66602 3.70977 3.59268 1.69727 6.46018 1.69727H9.57601C9.92101 1.69727 10.201 1.97727 10.201 2.32227C10.201 2.66727 9.92101 2.94727 9.57601 2.94727H6.46018C4.30685 2.94727 2.91602 4.42227 2.91602 6.70476V13.6331C2.91602 15.9156 4.30685 17.3906 6.46018 17.3906H13.8135C15.9668 17.3906 17.3585 15.9156 17.3585 13.6331V10.2764C17.3585 9.93143 17.6385 9.65143 17.9835 9.65143C18.3285 9.65143 18.6085 9.93143 18.6085 10.2764V13.6331C18.6085 16.6281 16.681 18.6406 13.8135 18.6406Z" fill="black"/>
<path fill-rule="evenodd" clip-rule="evenodd" d="M7.38907 12.857H9.8699C10.1866 12.857 10.4832 12.7345 10.7074 12.5103L16.9649 6.25283C17.2216 5.99616 17.3632 5.65449 17.3632 5.29116C17.3632 4.92699 17.2216 4.58449 16.9649 4.32783L15.9507 3.31366C15.4199 2.78449 14.5566 2.78449 14.0249 3.31366L7.7974 9.54116C7.58157 9.75699 7.45907 10.0437 7.45157 10.3478L7.38907 12.857ZM9.8699 14.107H6.74824C6.5799 14.107 6.41824 14.0387 6.30074 13.9178C6.18324 13.7978 6.11907 13.6353 6.12324 13.4662L6.20157 10.317C6.2174 9.69033 6.4699 9.10116 6.91324 8.65699H6.91407L13.1416 2.42949C14.1599 1.41283 15.8157 1.41283 16.8341 2.42949L17.8482 3.44366C18.3424 3.93699 18.6141 4.59283 18.6132 5.29116C18.6132 5.98949 18.3416 6.64449 17.8482 7.13699L11.5907 13.3945C11.1316 13.8537 10.5199 14.107 9.8699 14.107Z" fill="black"/>
<path fill-rule="evenodd" clip-rule="evenodd" d="M16.4415 8.26363C16.2815 8.26363 16.1215 8.2028 15.9998 8.0803L12.1948 4.2753C11.9507 4.03113 11.9507 3.6353 12.1948 3.39113C12.439 3.14697 12.834 3.14697 13.0782 3.39113L16.8832 7.19697C17.1273 7.44113 17.1273 7.83613 16.8832 8.0803C16.7615 8.2028 16.6015 8.26363 16.4415 8.26363Z" fill="black"/>
</svg>
