<svg width="24" height="24" viewBox="0 0 24 24" fill="none" xmlns="http://www.w3.org/2000/svg">
<g id="GearSix">
<path id="Vector" d="M22.3085 10.0509C22.2876 9.9453 22.2442 9.84543 22.1813 9.75807C22.1184 9.67072 22.0374 9.59793 21.9438 9.54467L19.1473 7.95092L19.136 4.79904C19.1357 4.69049 19.1118 4.58331 19.066 4.4849C19.0202 4.38649 18.9535 4.29919 18.8707 4.22904C17.8563 3.37095 16.6881 2.71336 15.4282 2.29123C15.329 2.25765 15.2238 2.24522 15.1195 2.25475C15.0152 2.26428 14.9141 2.29555 14.8226 2.34654L12.0016 3.92342L9.17789 2.34373C9.08635 2.29245 8.98506 2.26094 8.88058 2.25125C8.7761 2.24156 8.67074 2.2539 8.57133 2.28748C7.31224 2.71232 6.14531 3.37246 5.13258 4.23279C5.04986 4.30284 4.98331 4.38999 4.93751 4.48823C4.89171 4.58647 4.86774 4.69347 4.86727 4.80186L4.85321 7.95654L2.05664 9.55029C1.96308 9.60356 1.88209 9.67634 1.81916 9.7637C1.75623 9.85105 1.71285 9.95093 1.69196 10.0565C1.43601 11.3427 1.43601 12.6667 1.69196 13.9528C1.71285 14.0584 1.75623 14.1583 1.81916 14.2456C1.88209 14.333 1.96308 14.4058 2.05664 14.459L4.85321 16.0528L4.86446 19.2056C4.8648 19.3142 4.88869 19.4213 4.9345 19.5197C4.98031 19.6182 5.04693 19.7055 5.12977 19.7756C6.14421 20.6337 7.31241 21.2913 8.57227 21.7134C8.67148 21.747 8.77663 21.7594 8.88094 21.7499C8.98525 21.7404 9.0864 21.7091 9.17789 21.6581L12.0016 20.0765L14.8254 21.6562C14.9371 21.7185 15.0631 21.7508 15.191 21.75C15.2729 21.75 15.3543 21.7367 15.432 21.7106C16.6907 21.286 17.8576 20.6265 18.8707 19.7672C18.9534 19.6971 19.02 19.61 19.0658 19.5117C19.1116 19.4135 19.1355 19.3065 19.136 19.1981L19.1501 16.0434L21.9466 14.4497C22.0402 14.3964 22.1212 14.3236 22.1841 14.2363C22.2471 14.1489 22.2904 14.049 22.3113 13.9434C22.5658 12.6583 22.5649 11.3357 22.3085 10.0509ZM12.0016 15.75C11.26 15.75 10.5349 15.53 9.91825 15.118C9.30157 14.7059 8.82092 14.1203 8.53709 13.435C8.25327 12.7498 8.179 11.9958 8.3237 11.2684C8.46839 10.541 8.82555 9.87278 9.34999 9.34833C9.87444 8.82388 10.5426 8.46673 11.2701 8.32204C11.9975 8.17734 12.7515 8.2516 13.4367 8.53543C14.1219 8.81926 14.7076 9.29991 15.1197 9.91659C15.5317 10.5333 15.7516 11.2583 15.7516 12C15.7516 12.9945 15.3566 13.9484 14.6533 14.6516C13.95 15.3549 12.9962 15.75 12.0016 15.75Z" fill="white"/>
</g>
</svg>
