<svg width="24" height="24" viewBox="0 0 24 24" fill="none" xmlns="http://www.w3.org/2000/svg">
<g id="GearSix">
<path id="Vector" d="M22.3066 10.0509C22.2857 9.9453 22.2423 9.84543 22.1794 9.75807C22.1164 9.67072 22.0354 9.59793 21.9419 9.54467L19.1453 7.95092L19.1341 4.79904C19.1337 4.69049 19.1098 4.58331 19.064 4.4849C19.0182 4.38649 18.9516 4.29919 18.8688 4.22904C17.8543 3.37095 16.6861 2.71336 15.4263 2.29123C15.327 2.25765 15.2219 2.24522 15.1176 2.25475C15.0133 2.26428 14.9121 2.29555 14.8206 2.34654L11.9997 3.92342L9.17594 2.34373C9.0844 2.29245 8.98311 2.26094 8.87863 2.25125C8.77414 2.24156 8.66879 2.2539 8.56938 2.28748C7.31029 2.71232 6.14335 3.37246 5.13063 4.23279C5.04791 4.30284 4.98136 4.38999 4.93556 4.48823C4.88975 4.58647 4.86579 4.69347 4.86532 4.80186L4.85125 7.95654L2.05469 9.55029C1.96113 9.60356 1.88013 9.67634 1.8172 9.7637C1.75428 9.85105 1.71089 9.95093 1.69 10.0565C1.43406 11.3427 1.43406 12.6667 1.69 13.9528C1.71089 14.0584 1.75428 14.1583 1.8172 14.2456C1.88013 14.333 1.96113 14.4058 2.05469 14.459L4.85125 16.0528L4.8625 19.2056C4.86284 19.3142 4.88674 19.4213 4.93255 19.5197C4.97835 19.6182 5.04498 19.7055 5.12782 19.7756C6.14226 20.6337 7.31046 21.2913 8.57031 21.7134C8.66953 21.747 8.77468 21.7594 8.87899 21.7499C8.98329 21.7404 9.08445 21.7091 9.17594 21.6581L11.9997 20.0765L14.8234 21.6562C14.9352 21.7185 15.0611 21.7508 15.1891 21.75C15.271 21.75 15.3523 21.7367 15.43 21.7106C16.6888 21.286 17.8556 20.6265 18.8688 19.7672C18.9515 19.6971 19.018 19.61 19.0638 19.5117C19.1096 19.4135 19.1336 19.3065 19.1341 19.1981L19.1481 16.0434L21.9447 14.4497C22.0383 14.3964 22.1192 14.3236 22.1822 14.2363C22.2451 14.1489 22.2885 14.049 22.3094 13.9434C22.5639 12.6583 22.5629 11.3357 22.3066 10.0509ZM11.9997 15.75C11.258 15.75 10.533 15.53 9.9163 15.118C9.29962 14.7059 8.81897 14.1203 8.53514 13.435C8.25131 12.7498 8.17705 11.9958 8.32174 11.2684C8.46644 10.541 8.82359 9.87278 9.34804 9.34833C9.87249 8.82388 10.5407 8.46673 11.2681 8.32204C11.9955 8.17734 12.7495 8.2516 13.4348 8.53543C14.12 8.81926 14.7056 9.29991 15.1177 9.91659C15.5298 10.5333 15.7497 11.2583 15.7497 12C15.7497 12.9945 15.3546 13.9484 14.6513 14.6516C13.9481 15.3549 12.9943 15.75 11.9997 15.75Z" fill="#980019"/>
</g>
</svg>
