<svg width="21" height="22" viewBox="0 0 21 22" fill="none" xmlns="http://www.w3.org/2000/svg">
<g id="#start-icon" opacity="0.7" filter="url(#filter0_d_3318_6524)">
<path id="Vector" d="M13.5 8.75C13.5 8.78299 13.4935 8.81549 13.481 8.84567C13.4747 8.86073 13.467 8.87521 13.4579 8.88889C13.4395 8.91632 13.4161 8.93972 13.3889 8.95787C13.3753 8.96692 13.3609 8.97467 13.3457 8.98097C13.3152 8.99359 13.2827 9 13.25 9C13.2337 9 13.2174 8.99841 13.2012 8.9952C13.1527 8.98555 13.1082 8.96174 13.0732 8.92678C13.0383 8.89182 13.0145 8.84727 13.0048 8.79877C13.0016 8.78263 13 8.7663 13 8.75C13 8.71733 13.0064 8.68481 13.019 8.65433C13.0253 8.63913 13.0331 8.62466 13.0421 8.61111C13.0603 8.58394 13.0837 8.56046 13.1111 8.54213C13.1248 8.53299 13.1393 8.52527 13.1543 8.51903C13.1845 8.50653 13.217 8.5 13.25 8.5C13.2665 8.5 13.2828 8.50163 13.2988 8.5048C13.3469 8.51438 13.3916 8.538 13.4268 8.57322C13.462 8.60844 13.4856 8.65309 13.4952 8.70123C13.4984 8.71717 13.5 8.7335 13.5 8.75Z" fill="#1F2937" stroke="#1F2937" stroke-width="2"/>
</g>
<defs>
<filter id="filter0_d_3318_6524" x="-2" y="0" width="24" height="24" filterUnits="userSpaceOnUse" color-interpolation-filters="sRGB">
<feFlood flood-opacity="0" result="BackgroundImageFix"/>
<feColorMatrix in="SourceAlpha" type="matrix" values="0 0 0 0 0 0 0 0 0 0 0 0 0 0 0 0 0 0 127 0" result="hardAlpha"/>
<feOffset dy="4"/>
<feGaussianBlur stdDeviation="2"/>
<feComposite in2="hardAlpha" operator="out"/>
<feColorMatrix type="matrix" values="0 0 0 0 0 0 0 0 0 0 0 0 0 0 0 0 0 0 0.25 0"/>
<feBlend mode="normal" in2="BackgroundImageFix" result="effect1_dropShadow_3318_6524"/>
<feBlend mode="normal" in="SourceGraphic" in2="effect1_dropShadow_3318_6524" result="shape"/>
</filter>
</defs>
</svg>
