<svg width="16" height="16" viewBox="0 0 16 16" fill="none" xmlns="http://www.w3.org/2000/svg">
<g id="#start-icon" opacity="0.7">
<path id="Vector" d="M11.1765 10.4776L11.14 10.5215L11.1803 10.5618L14.3097 13.6906C14.3504 13.7312 14.3826 13.7795 14.4046 13.8326C14.4266 13.8857 14.4379 13.9427 14.4379 14.0001C14.4379 14.0576 14.4266 14.1146 14.4046 14.1677C14.3826 14.2208 14.3504 14.269 14.3097 14.3097C14.269 14.3504 14.2208 14.3826 14.1677 14.4046C14.1146 14.4266 14.0576 14.4379 14.0001 14.4379C13.9427 14.4379 13.8857 14.4266 13.8326 14.4046C13.7795 14.3826 13.7312 14.3504 13.6906 14.3097L10.5618 11.1803L10.5215 11.14L10.4776 11.1765C9.40107 12.0732 8.02022 12.5204 6.62236 12.4249C5.2245 12.3295 3.91724 11.6988 2.97253 10.6641C2.02782 9.62937 1.5184 8.27026 1.55024 6.8695C1.58207 5.46875 2.15271 4.13419 3.14345 3.14345C4.13419 2.15271 5.46875 1.58207 6.8695 1.55024C8.27026 1.5184 9.62937 2.02782 10.6641 2.97253C11.6988 3.91724 12.3295 5.2245 12.4249 6.62236C12.5204 8.02022 12.0732 9.40107 11.1765 10.4776ZM2.43764 7.00014L2.43764 7.00021C2.43898 8.20983 2.9201 9.36953 3.77543 10.2249C4.63076 11.0802 5.79045 11.5613 7.00007 11.5626H7.00014C7.90252 11.5626 8.78463 11.2951 9.53493 10.7937C10.2852 10.2924 10.87 9.57982 11.2153 8.74614C11.5607 7.91245 11.651 6.99508 11.475 6.11004C11.2989 5.225 10.8644 4.41204 10.2263 3.77397C9.58824 3.13589 8.77528 2.70135 7.89024 2.52531C7.0052 2.34926 6.08784 2.43962 5.25415 2.78494C4.42046 3.13027 3.7079 3.71505 3.20656 4.46535C2.70523 5.21565 2.43764 6.09777 2.43764 7.00014Z" fill="#1F2937" stroke="#1F2937" stroke-width="0.125"/>
</g>
</svg>
