<svg width="13" height="12" viewBox="0 0 13 12" fill="none" xmlns="http://www.w3.org/2000/svg">
<path d="M9.5 6.75C9.5 6.78299 9.49347 6.81549 9.48097 6.84567C9.47473 6.86073 9.46701 6.87521 9.45787 6.88889C9.43954 6.91632 9.41606 6.93972 9.38889 6.95787C9.37534 6.96692 9.36087 6.97467 9.34567 6.98097C9.31519 6.99359 9.28267 7 9.25 7C9.2337 7 9.21737 6.99841 9.20123 6.9952C9.15273 6.98555 9.10818 6.96174 9.07322 6.92678C9.03826 6.89182 9.01445 6.84727 9.0048 6.79877C9.00159 6.78263 9 6.7663 9 6.75C9 6.71733 9.00641 6.68481 9.01903 6.65433C9.02533 6.63913 9.03308 6.62466 9.04213 6.61111C9.06028 6.58394 9.08368 6.56046 9.11111 6.54213C9.12479 6.53299 9.13927 6.52527 9.15433 6.51903C9.18451 6.50653 9.21701 6.5 9.25 6.5C9.2665 6.5 9.28283 6.50163 9.29877 6.5048C9.34692 6.51438 9.39156 6.538 9.42678 6.57322C9.462 6.60844 9.48562 6.65309 9.4952 6.70123C9.49837 6.71717 9.5 6.7335 9.5 6.75Z" fill="#1F2937" stroke="#1F2937" stroke-width="2"/>
</svg>
