<?xml version="1.0" encoding="UTF-8"?>
<!DOCTYPE svg PUBLIC "-//W3C//DTD SVG 1.1//EN" "http://www.w3.org/Graphics/SVG/1.1/DTD/svg11.dtd">
<svg xmlns="http://www.w3.org/2000/svg" version="1.1" width="96px" height="96px" style="shape-rendering:geometricPrecision; text-rendering:geometricPrecision; image-rendering:optimizeQuality; fill-rule:evenodd; clip-rule:evenodd" xmlns:xlink="http://www.w3.org/1999/xlink">
<g><path style="opacity:0.983" fill="#616972" d="M 16.5,11.5 C 35.5117,11.1671 54.5117,11.5004 73.5,12.5C 74.8333,13.8333 74.8333,15.1667 73.5,16.5C 55.8428,17.333 38.1761,17.833 20.5,18C 17.8333,19.6667 17.8333,21.3333 20.5,23C 40.5894,23.0234 60.5894,23.6901 80.5,25C 81.7014,25.9025 82.5348,27.0692 83,28.5C 83.6667,45.1667 83.6667,61.8333 83,78.5C 82.5348,79.9308 81.7014,81.0975 80.5,82C 59.2556,83.6437 37.9222,83.977 16.5,83C 15.0692,82.5348 13.9025,81.7014 13,80.5C 11.3563,59.2556 11.023,37.9222 12,16.5C 13.025,14.313 14.525,12.6464 16.5,11.5 Z M 17.5,29.5 C 36.8797,29.1792 56.2131,29.5125 75.5,30.5C 76.1924,31.0253 76.6924,31.6919 77,32.5C 77.816,46.8783 77.6493,61.2117 76.5,75.5C 75.9747,76.1924 75.3081,76.6924 74.5,77C 56.1229,77.8198 37.7895,77.6532 19.5,76.5C 18.8076,75.9747 18.3076,75.3081 18,74.5C 17.5001,59.5037 17.3334,44.5037 17.5,29.5 Z"/></g>
<g><path style="opacity:0.887" fill="#616872" d="M 63.5,47.5 C 71.4863,46.998 73.4863,50.1647 69.5,57C 61.424,57.8047 59.424,54.638 63.5,47.5 Z"/></g>
</svg>
