<svg width="20" height="20" viewBox="0 0 20 20" fill="none" xmlns="http://www.w3.org/2000/svg">
<g id="ShareNetwork">
<path id="Vector" d="M13.7507 12.4996C13.3338 12.4994 12.921 12.583 12.537 12.7452C12.1529 12.9074 11.8053 13.1451 11.5147 13.4441L7.91318 11.1293C8.19648 10.4028 8.19648 9.59637 7.91318 8.86988L11.5147 6.55504C12.0557 7.1092 12.7832 7.44274 13.5561 7.491C14.3291 7.53926 15.0924 7.29881 15.6981 6.81625C16.3038 6.33369 16.7088 5.64342 16.8344 4.87925C16.9601 4.11508 16.7976 3.33147 16.3783 2.68033C15.9591 2.02919 15.313 1.55692 14.5653 1.35508C13.8177 1.15324 13.0217 1.23621 12.3317 1.5879C11.6417 1.93959 11.1069 2.53495 10.831 3.25855C10.555 3.98215 10.5576 4.78244 10.8382 5.50426L7.23661 7.8191C6.80292 7.37385 6.24629 7.06804 5.63789 6.94078C5.0295 6.81351 4.39697 6.87057 3.82116 7.10465C3.24536 7.33873 2.75244 7.73921 2.40542 8.25488C2.0584 8.77056 1.87305 9.37801 1.87305 9.99957C1.87305 10.6211 2.0584 11.2286 2.40542 11.7443C2.75244 12.2599 3.24536 12.6604 3.82116 12.8945C4.39697 13.1286 5.0295 13.1856 5.63789 13.0584C6.24629 12.9311 6.80292 12.6253 7.23661 12.18L10.8382 14.4949C10.5969 15.1172 10.5612 15.8004 10.7363 16.4444C10.9114 17.0885 11.2881 17.6595 11.8112 18.074C12.3344 18.4885 12.9765 18.7245 13.6435 18.7477C14.3105 18.7708 14.9674 18.5798 15.518 18.2026C16.0686 17.8254 16.484 17.2818 16.7033 16.6514C16.9226 16.0211 16.9344 15.3371 16.7368 14.6995C16.5392 14.062 16.1428 13.5045 15.6054 13.1086C15.0681 12.7128 14.4181 12.4993 13.7507 12.4996ZM13.7507 2.49957C14.1215 2.49957 14.484 2.60954 14.7924 2.81557C15.1007 3.02159 15.341 3.31443 15.483 3.65704C15.6249 3.99965 15.662 4.37665 15.5896 4.74037C15.5173 5.10408 15.3387 5.43817 15.0765 5.7004C14.8143 5.96262 14.4802 6.1412 14.1165 6.21354C13.7528 6.28589 13.3758 6.24876 13.0331 6.10685C12.6905 5.96493 12.3977 5.72461 12.1917 5.41627C11.9856 5.10792 11.8757 4.74541 11.8757 4.37457C11.8757 3.87729 12.0732 3.40038 12.4249 3.04875C12.7765 2.69712 13.2534 2.49957 13.7507 2.49957ZM5.00068 11.8746C4.62984 11.8746 4.26732 11.7646 3.95898 11.5586C3.65064 11.3525 3.41032 11.0597 3.2684 10.7171C3.12649 10.3745 3.08936 9.99749 3.1617 9.63378C3.23405 9.27006 3.41263 8.93597 3.67485 8.67375C3.93707 8.41152 4.27117 8.23295 4.63488 8.1606C4.9986 8.08825 5.3756 8.12538 5.71821 8.2673C6.06082 8.40921 6.35365 8.64954 6.55968 8.95788C6.76571 9.26622 6.87568 9.62873 6.87568 9.99957C6.87568 10.4969 6.67813 10.9738 6.3265 11.3254C5.97487 11.677 5.49796 11.8746 5.00068 11.8746ZM13.7507 17.4996C13.3798 17.4996 13.0173 17.3896 12.709 17.1836C12.4006 16.9775 12.1603 16.6847 12.0184 16.3421C11.8765 15.9995 11.8394 15.6225 11.9117 15.2588C11.9841 14.8951 12.1626 14.561 12.4249 14.2987C12.6871 14.0365 13.0212 13.8579 13.3849 13.7856C13.7486 13.7133 14.1256 13.7504 14.4682 13.8923C14.8108 14.0342 15.1037 14.2745 15.3097 14.5829C15.5157 14.8912 15.6257 15.2537 15.6257 15.6246C15.6257 16.1219 15.4281 16.5988 15.0765 16.9504C14.7249 17.302 14.248 17.4996 13.7507 17.4996Z" fill="#5D5F5F"/>
</g>
</svg>
