<svg width="51" height="51" viewBox="0 0 51 51" fill="none" xmlns="http://www.w3.org/2000/svg">
<rect x="0.125" y="0.5" width="50" height="50" rx="12" fill="#F0F4FF"/>
<path d="M35.4056 23.47L27.9056 15.97C27.8007 15.865 27.6671 15.7935 27.5217 15.7645C27.3762 15.7355 27.2254 15.7502 27.0883 15.8069C26.9512 15.8636 26.834 15.9597 26.7515 16.083C26.6691 16.2063 26.625 16.3513 26.6249 16.4997V20.2825C24.1931 20.4906 21.5071 21.6812 19.2974 23.5553C16.6368 25.8128 14.9803 28.7218 14.6324 31.7462C14.6053 31.9813 14.6529 32.2191 14.7687 32.4255C14.8844 32.632 15.0623 32.7967 15.2771 32.8962C15.4919 32.9957 15.7326 33.0249 15.9649 32.9797C16.1973 32.9345 16.4094 32.8171 16.5712 32.6443C17.6024 31.5465 21.2718 28.075 26.6249 27.7693V31.4997C26.625 31.648 26.6691 31.793 26.7515 31.9163C26.834 32.0396 26.9512 32.1357 27.0883 32.1924C27.2254 32.2491 27.3762 32.2638 27.5217 32.2348C27.6671 32.2058 27.8007 32.1343 27.9056 32.0293L35.4056 24.5293C35.5458 24.3887 35.6246 24.1983 35.6246 23.9997C35.6246 23.8011 35.5458 23.6106 35.4056 23.47ZM28.1249 29.6893V26.9997C28.1249 26.8007 28.0459 26.61 27.9053 26.4693C27.7646 26.3287 27.5739 26.2497 27.3749 26.2497C24.7424 26.2497 22.1784 26.9368 19.754 28.2934C18.5193 28.9874 17.3688 29.8216 16.3256 30.7797C16.8693 28.5447 18.2399 26.4193 20.2678 24.699C22.4446 22.8531 25.1015 21.7497 27.3749 21.7497C27.5739 21.7497 27.7646 21.6706 27.9053 21.53C28.0459 21.3893 28.1249 21.1986 28.1249 20.9997V18.3109L33.8146 23.9997L28.1249 29.6893Z" fill="#343330"/>
</svg>
