<svg width="51" height="51" viewBox="0 0 51 51" fill="none" xmlns="http://www.w3.org/2000/svg">
<rect x="0.125" y="0.5" width="50" height="50" rx="12" fill="#F0F4FF"/>
<path d="M23.625 19.5H24.125V24.5H23.625C22.962 24.5 22.3261 24.2366 21.8572 23.7678C21.3884 23.2989 21.125 22.663 21.125 22C21.125 21.337 21.3884 20.7011 21.8572 20.2322C22.3261 19.7634 22.962 19.5 23.625 19.5ZM27.625 26.5H26.125V31.5H27.625C28.288 31.5 28.9239 31.2366 29.3928 30.7678C29.8616 30.2989 30.125 29.663 30.125 29C30.125 28.337 29.8616 27.7011 29.3928 27.2322C28.9239 26.7634 28.288 26.5 27.625 26.5ZM38.125 25.5C38.125 28.0712 37.3626 30.5846 35.9341 32.7224C34.5057 34.8603 32.4753 36.5265 30.0999 37.5104C27.7245 38.4944 25.1106 38.7518 22.5888 38.2502C20.0671 37.7486 17.7507 36.5105 15.9326 34.6924C14.1145 32.8743 12.8764 30.5579 12.3748 28.0362C11.8732 25.5144 12.1306 22.9006 13.1146 20.5251C14.0985 18.1497 15.7648 16.1194 17.9026 14.6909C20.0404 13.2624 22.5538 12.5 25.125 12.5C28.5717 12.5036 31.8762 13.8744 34.3134 16.3116C36.7506 18.7488 38.1214 22.0533 38.125 25.5ZM32.125 29C32.125 27.8065 31.6509 26.6619 30.807 25.818C29.9631 24.9741 28.8185 24.5 27.625 24.5H26.125V19.5H26.625C27.288 19.5 27.9239 19.7634 28.3928 20.2322C28.8616 20.7011 29.125 21.337 29.125 22C29.125 22.2652 29.2304 22.5196 29.4179 22.7071C29.6054 22.8946 29.8598 23 30.125 23C30.3902 23 30.6446 22.8946 30.8321 22.7071C31.0196 22.5196 31.125 22.2652 31.125 22C31.125 20.8065 30.6509 19.6619 29.807 18.818C28.9631 17.9741 27.8185 17.5 26.625 17.5H26.125V16.5C26.125 16.2348 26.0196 15.9804 25.8321 15.7929C25.6446 15.6054 25.3902 15.5 25.125 15.5C24.8598 15.5 24.6054 15.6054 24.4179 15.7929C24.2304 15.9804 24.125 16.2348 24.125 16.5V17.5H23.625C22.4315 17.5 21.2869 17.9741 20.443 18.818C19.5991 19.6619 19.125 20.8065 19.125 22C19.125 23.1935 19.5991 24.3381 20.443 25.182C21.2869 26.0259 22.4315 26.5 23.625 26.5H24.125V31.5H23.125C22.462 31.5 21.8261 31.2366 21.3572 30.7678C20.8884 30.2989 20.625 29.663 20.625 29C20.625 28.7348 20.5196 28.4804 20.3321 28.2929C20.1446 28.1054 19.8902 28 19.625 28C19.3598 28 19.1054 28.1054 18.9179 28.2929C18.7304 28.4804 18.625 28.7348 18.625 29C18.625 30.1935 19.0991 31.3381 19.943 32.182C20.7869 33.0259 21.9315 33.5 23.125 33.5H24.125V34.5C24.125 34.7652 24.2304 35.0196 24.4179 35.2071C24.6054 35.3946 24.8598 35.5 25.125 35.5C25.3902 35.5 25.6446 35.3946 25.8321 35.2071C26.0196 35.0196 26.125 34.7652 26.125 34.5V33.5H27.625C28.8185 33.5 29.9631 33.0259 30.807 32.182C31.6509 31.3381 32.125 30.1935 32.125 29Z" fill="#4F4F4F"/>
</svg>
