<svg width="51" height="51" viewBox="0 0 51 51" fill="none" xmlns="http://www.w3.org/2000/svg">
<rect x="0.125" y="0.5" width="50" height="50" rx="12" fill="#F0F4FF"/>
<path d="M35.0625 21.0113C34.8513 20.7719 34.5916 20.5803 34.3007 20.449C34.0097 20.3178 33.6942 20.2499 33.375 20.25H28.125V18.75C28.125 17.7554 27.7299 16.8016 27.0267 16.0983C26.3234 15.3951 25.3696 15 24.375 15C24.2357 14.9999 24.0991 15.0386 23.9805 15.1118C23.8619 15.185 23.7661 15.2898 23.7037 15.4144L20.1619 22.5H16.125C15.7272 22.5 15.3456 22.658 15.0643 22.9393C14.783 23.2206 14.625 23.6022 14.625 24V32.25C14.625 32.6478 14.783 33.0294 15.0643 33.3107C15.3456 33.592 15.7272 33.75 16.125 33.75H32.25C32.7982 33.7502 33.3275 33.5503 33.7387 33.1878C34.1499 32.8253 34.4146 32.3251 34.4831 31.7812L35.6081 22.7812C35.648 22.4644 35.62 22.1427 35.5259 21.8375C35.4318 21.5323 35.2738 21.2507 35.0625 21.0113ZM16.125 24H19.875V32.25H16.125V24ZM34.1194 22.5938L32.9944 31.5938C32.9715 31.775 32.8833 31.9418 32.7462 32.0626C32.6092 32.1834 32.4327 32.2501 32.25 32.25H21.375V23.4272L24.8166 16.5431C25.3266 16.6452 25.7856 16.9209 26.1153 17.3233C26.445 17.7256 26.6251 18.2298 26.625 18.75V21C26.625 21.1989 26.704 21.3897 26.8447 21.5303C26.9853 21.671 27.1761 21.75 27.375 21.75H33.375C33.4814 21.75 33.5866 21.7726 33.6837 21.8163C33.7807 21.8601 33.8673 21.924 33.9377 22.0038C34.0081 22.0836 34.0607 22.1775 34.092 22.2792C34.1234 22.3809 34.1327 22.4882 34.1194 22.5938Z" fill="#343330"/>
</svg>
