<svg width="51" height="51" viewBox="0 0 51 51" fill="none" xmlns="http://www.w3.org/2000/svg">
<rect x="0.875" y="0.5" width="50" height="50" rx="12" fill="#F0F4FF"/>
<path d="M29.625 24C29.625 24.1989 29.546 24.3897 29.4053 24.5303C29.2647 24.671 29.0739 24.75 28.875 24.75H22.875C22.6761 24.75 22.4853 24.671 22.3447 24.5303C22.204 24.3897 22.125 24.1989 22.125 24C22.125 23.8011 22.204 23.6103 22.3447 23.4697C22.4853 23.329 22.6761 23.25 22.875 23.25H28.875C29.0739 23.25 29.2647 23.329 29.4053 23.4697C29.546 23.6103 29.625 23.8011 29.625 24ZM28.875 26.25H22.875C22.6761 26.25 22.4853 26.329 22.3447 26.4697C22.204 26.6103 22.125 26.8011 22.125 27C22.125 27.1989 22.204 27.3897 22.3447 27.5303C22.4853 27.671 22.6761 27.75 22.875 27.75H28.875C29.0739 27.75 29.2647 27.671 29.4053 27.5303C29.546 27.3897 29.625 27.1989 29.625 27C29.625 26.8011 29.546 26.6103 29.4053 26.4697C29.2647 26.329 29.0739 26.25 28.875 26.25ZM35.625 25.125C35.6223 27.6106 34.6337 29.9935 32.8761 31.7511C31.1185 33.5087 28.7356 34.4973 26.25 34.5H18.3441C17.9546 34.4995 17.5812 34.3446 17.3058 34.0692C17.0304 33.7938 16.8755 33.4204 16.875 33.0309V25.125C16.875 22.6386 17.8627 20.254 19.6209 18.4959C21.379 16.7377 23.7636 15.75 26.25 15.75C28.7364 15.75 31.121 16.7377 32.8791 18.4959C34.6373 20.254 35.625 22.6386 35.625 25.125ZM34.125 25.125C34.125 23.0364 33.2953 21.0334 31.8185 19.5565C30.3416 18.0797 28.3386 17.25 26.25 17.25C24.1614 17.25 22.1584 18.0797 20.6815 19.5565C19.2047 21.0334 18.375 23.0364 18.375 25.125V33H26.25C28.3379 32.9978 30.3396 32.1674 31.816 30.691C33.2924 29.2146 34.1228 27.2129 34.125 25.125Z" fill="#343330"/>
</svg>
