<svg width="51" height="51" viewBox="0 0 51 51" fill="none" xmlns="http://www.w3.org/2000/svg">
<rect x="0.375" y="0.5" width="50" height="50" rx="12" fill="#F0F4FF"/>
<path d="M36.3253 27.5992C36.2465 27.6583 36.1568 27.7013 36.0614 27.7257C35.966 27.7502 35.8667 27.7556 35.7692 27.7417C35.6717 27.7277 35.5779 27.6947 35.4932 27.6445C35.4084 27.5944 35.3344 27.528 35.2753 27.4492C34.8232 26.8416 34.2348 26.3486 33.5574 26.0099C32.8801 25.6712 32.1326 25.4963 31.3753 25.4992C31.2278 25.4992 31.0836 25.4557 30.9607 25.3741C30.8378 25.2926 30.7417 25.1766 30.6843 25.0408C30.6454 24.9485 30.6254 24.8493 30.6254 24.7492C30.6254 24.649 30.6454 24.5499 30.6843 24.4576C30.7417 24.3217 30.8378 24.2058 30.9607 24.1242C31.0836 24.0427 31.2278 23.9992 31.3753 23.9992C31.7961 23.9992 32.2085 23.8811 32.5656 23.6584C32.9226 23.4358 33.2101 23.1175 33.3954 22.7396C33.5806 22.3617 33.6562 21.9395 33.6135 21.5209C33.5708 21.1022 33.4115 20.7039 33.1538 20.3713C32.8961 20.0386 32.5503 19.7849 32.1556 19.6389C31.7609 19.4929 31.3332 19.4606 30.921 19.5455C30.5088 19.6304 30.1288 19.8292 29.8239 20.1193C29.5191 20.4095 29.3017 20.7792 29.1965 21.1867C29.1719 21.2821 29.1287 21.3717 29.0695 21.4505C29.0102 21.5292 28.936 21.5955 28.8511 21.6455C28.7663 21.6956 28.6724 21.7284 28.5748 21.7422C28.4772 21.756 28.3779 21.7504 28.2825 21.7258C28.1871 21.7011 28.0974 21.658 28.0187 21.5987C27.94 21.5394 27.8737 21.4652 27.8236 21.3804C27.7736 21.2955 27.7407 21.2016 27.727 21.104C27.7132 21.0064 27.7188 20.9071 27.7434 20.8117C27.8894 20.2467 28.1653 19.7235 28.5491 19.2839C28.9329 18.8443 29.414 18.5003 29.9541 18.2793C30.4942 18.0583 31.0784 17.9664 31.6603 18.0109C32.2422 18.0555 32.8057 18.2352 33.3059 18.5358C33.806 18.8364 34.2292 19.2497 34.5416 19.7426C34.854 20.2355 35.047 20.7945 35.1053 21.3752C35.1637 21.9559 35.0857 22.5421 34.8776 23.0873C34.6694 23.6325 34.3369 24.1217 33.9065 24.5158C34.9264 24.9573 35.8129 25.658 36.4781 26.5483C36.5372 26.6272 36.5801 26.7171 36.6044 26.8127C36.6287 26.9083 36.6339 27.0078 36.6197 27.1054C36.6055 27.2031 36.5722 27.2969 36.5217 27.3816C36.4712 27.4664 36.4044 27.5403 36.3253 27.5992ZM31.274 33.3742C31.3283 33.4596 31.3647 33.555 31.3812 33.6548C31.3976 33.7546 31.3936 33.8567 31.3696 33.955C31.3455 34.0532 31.3018 34.1456 31.2411 34.2265C31.1804 34.3074 31.104 34.3753 31.0164 34.4259C30.9289 34.4765 30.8319 34.5089 30.7315 34.5211C30.6311 34.5333 30.5293 34.525 30.4321 34.4968C30.335 34.4687 30.2445 34.4211 30.1662 34.3571C30.088 34.293 30.0234 34.2138 29.9765 34.1242C29.5041 33.3242 28.8312 32.6612 28.0243 32.2006C27.2174 31.7401 26.3044 31.4978 25.3753 31.4978C24.4462 31.4978 23.5332 31.7401 22.7263 32.2006C21.9194 32.6612 21.2465 33.3242 20.774 34.1242C20.7271 34.2138 20.6626 34.293 20.5843 34.3571C20.506 34.4211 20.4156 34.4687 20.3184 34.4968C20.2213 34.525 20.1194 34.5333 20.019 34.5211C19.9186 34.5089 19.8217 34.4765 19.7341 34.4259C19.6466 34.3753 19.5701 34.3074 19.5094 34.2265C19.4488 34.1456 19.4051 34.0532 19.381 33.955C19.3569 33.8567 19.353 33.7546 19.3694 33.6548C19.3858 33.555 19.4223 33.4596 19.4765 33.3742C20.2037 32.1249 21.3123 31.1417 22.6397 30.5692C21.8928 29.9974 21.3439 29.2058 21.0701 28.3059C20.7963 27.406 20.8114 26.4429 21.1133 25.552C21.4152 24.6611 21.9887 23.8872 22.7532 23.3391C23.5176 22.791 24.4346 22.4962 25.3753 22.4962C26.3159 22.4962 27.2329 22.791 27.9974 23.3391C28.7619 23.8872 29.3353 24.6611 29.6372 25.552C29.9391 26.4429 29.9542 27.406 29.6805 28.3059C29.4067 29.2058 28.8578 29.9974 28.1109 30.5692C29.4382 31.1417 30.5469 32.1249 31.274 33.3742ZM25.3753 29.9992C25.9686 29.9992 26.5486 29.8232 27.042 29.4936C27.5353 29.164 27.9199 28.6954 28.1469 28.1472C28.374 27.5991 28.4334 26.9959 28.3176 26.4139C28.2019 25.832 27.9162 25.2974 27.4966 24.8779C27.077 24.4583 26.5425 24.1726 25.9606 24.0568C25.3786 23.9411 24.7754 24.0005 24.2272 24.2276C23.6791 24.4546 23.2105 24.8391 22.8809 25.3325C22.5512 25.8258 22.3753 26.4058 22.3753 26.9992C22.3753 27.7948 22.6914 28.5579 23.254 29.1205C23.8166 29.6831 24.5796 29.9992 25.3753 29.9992ZM20.1253 24.7492C20.1253 24.5503 20.0463 24.3595 19.9056 24.2189C19.765 24.0782 19.5742 23.9992 19.3753 23.9992C18.9545 23.9992 18.5421 23.8811 18.185 23.6584C17.8279 23.4358 17.5404 23.1175 17.3552 22.7396C17.17 22.3617 17.0944 21.9395 17.1371 21.5209C17.1798 21.1022 17.339 20.7039 17.5968 20.3713C17.8545 20.0386 18.2003 19.7849 18.595 19.6389C18.9897 19.4929 19.4174 19.4606 19.8296 19.5455C20.2417 19.6304 20.6218 19.8292 20.9266 20.1193C21.2315 20.4095 21.4488 20.7792 21.554 21.1867C21.6038 21.3794 21.728 21.5444 21.8994 21.6455C22.0708 21.7466 22.2754 21.7755 22.4681 21.7258C22.6608 21.676 22.8258 21.5518 22.9269 21.3804C23.028 21.2089 23.0569 21.0044 23.0072 20.8117C22.8611 20.2467 22.5853 19.7235 22.2015 19.2839C21.8177 18.8443 21.3366 18.5003 20.7965 18.2793C20.2564 18.0583 19.6721 17.9664 19.0902 18.0109C18.5084 18.0555 17.9449 18.2352 17.4447 18.5358C16.9445 18.8364 16.5214 19.2497 16.209 19.7426C15.8966 20.2355 15.7036 20.7945 15.6452 21.3752C15.5869 21.9559 15.6649 22.5421 15.873 23.0873C16.0811 23.6325 16.4136 24.1217 16.844 24.5158C15.8252 24.9577 14.9397 25.6584 14.2753 26.5483C14.1558 26.7074 14.1044 26.9075 14.1325 27.1045C14.1605 27.3015 14.2657 27.4793 14.4248 27.5987C14.5839 27.7182 14.784 27.7696 14.981 27.7415C15.178 27.7135 15.3558 27.6083 15.4753 27.4492C15.9273 26.8416 16.5157 26.3486 17.1931 26.0099C17.8705 25.6712 18.6179 25.4963 19.3753 25.4992C19.5742 25.4992 19.765 25.4202 19.9056 25.2795C20.0463 25.1389 20.1253 24.9481 20.1253 24.7492Z" fill="#343330"/>
</svg>
