<svg width="25" height="24" viewBox="0 0 25 24" fill="none" xmlns="http://www.w3.org/2000/svg">
<path fill-rule="evenodd" clip-rule="evenodd" d="M14.9963 11.2331H17.7641C18.1838 11.2331 18.5136 10.8861 18.5136 10.4677C18.5136 10.0391 18.1838 9.70236 17.7641 9.70236H14.9963C14.5766 9.70236 14.2469 10.0391 14.2469 10.4677C14.2469 10.8861 14.5766 11.2331 14.9963 11.2331ZM21.0516 5.92749C21.6611 5.92749 22.0608 6.1418 22.4605 6.61123C22.8602 7.08067 22.9301 7.7542 22.8402 8.36549L21.8909 15.06C21.7111 16.3469 20.6319 17.2949 19.3629 17.2949H8.46139C7.13242 17.2949 6.03328 16.255 5.92337 14.908L5.00408 3.7834L3.49526 3.51807C3.09557 3.44664 2.81579 3.04864 2.88573 2.64043C2.95568 2.22305 3.34538 1.94649 3.75506 2.00874L6.1382 2.3751C6.47793 2.43735 6.72774 2.72207 6.75772 3.06905L6.94757 5.35499C6.97754 5.68257 7.23734 5.92749 7.55709 5.92749H21.0516ZM8.30131 18.9079C7.46197 18.9079 6.7825 19.6018 6.7825 20.459C6.7825 21.3061 7.46197 22 8.30131 22C9.13067 22 9.81014 21.3061 9.81014 20.459C9.81014 19.6018 9.13067 18.9079 8.30131 18.9079ZM19.5426 18.9079C18.7032 18.9079 18.0237 19.6018 18.0237 20.459C18.0237 21.3061 18.7032 22 19.5426 22C20.3719 22 21.0514 21.3061 21.0514 20.459C21.0514 19.6018 20.3719 18.9079 19.5426 18.9079Z" fill="#4F4F4F"/>
</svg>
