<svg width="51" height="51" viewBox="0 0 51 51" fill="none" xmlns="http://www.w3.org/2000/svg">
<rect x="0.375" y="0.5" width="50" height="50" rx="12" fill="#F0F4FF"/>
<path fill-rule="evenodd" clip-rule="evenodd" d="M27.9963 24.2331H30.7641C31.1838 24.2331 31.5136 23.8861 31.5136 23.4677C31.5136 23.0391 31.1838 22.7024 30.7641 22.7024H27.9963C27.5766 22.7024 27.2469 23.0391 27.2469 23.4677C27.2469 23.8861 27.5766 24.2331 27.9963 24.2331ZM34.0516 18.9275C34.6611 18.9275 35.0608 19.1418 35.4605 19.6112C35.8602 20.0807 35.9301 20.7542 35.8402 21.3655L34.8909 28.06C34.7111 29.3469 33.6319 30.2949 32.3629 30.2949H21.4614C20.1324 30.2949 19.0333 29.255 18.9234 27.908L18.0041 16.7834L16.4953 16.5181C16.0956 16.4466 15.8158 16.0486 15.8857 15.6404C15.9557 15.223 16.3454 14.9465 16.7551 15.0087L19.1382 15.3751C19.4779 15.4374 19.7277 15.7221 19.7577 16.069L19.9476 18.355C19.9775 18.6826 20.2373 18.9275 20.5571 18.9275H34.0516ZM21.3013 31.9079C20.462 31.9079 19.7825 32.6018 19.7825 33.459C19.7825 34.3061 20.462 35 21.3013 35C22.1307 35 22.8101 34.3061 22.8101 33.459C22.8101 32.6018 22.1307 31.9079 21.3013 31.9079ZM32.5426 31.9079C31.7032 31.9079 31.0237 32.6018 31.0237 33.459C31.0237 34.3061 31.7032 35 32.5426 35C33.3719 35 34.0514 34.3061 34.0514 33.459C34.0514 32.6018 33.3719 31.9079 32.5426 31.9079Z" fill="#4F4F4F"/>
</svg>
