<svg width="32" height="33" viewBox="0 0 32 33" fill="none" xmlns="http://www.w3.org/2000/svg">
<g id="Video">
<path id="Vector" d="M20.555 13.6675L14.555 9.6675C14.4044 9.567 14.2293 9.50928 14.0484 9.50052C13.8675 9.49176 13.6877 9.53227 13.528 9.61774C13.3684 9.70321 13.2349 9.83043 13.1419 9.98581C13.0489 10.1412 12.9999 10.3189 13 10.5V18.5C12.9999 18.6811 13.0489 18.8588 13.1419 19.0142C13.2349 19.1696 13.3684 19.2968 13.528 19.3823C13.6877 19.4677 13.8675 19.5082 14.0484 19.4995C14.2293 19.4907 14.4044 19.433 14.555 19.3325L20.555 15.3325C20.6922 15.2412 20.8047 15.1175 20.8825 14.9722C20.9603 14.827 21.001 14.6648 21.001 14.5C21.001 14.3352 20.9603 14.173 20.8825 14.0278C20.8047 13.8825 20.6922 13.7588 20.555 13.6675ZM15 16.6313V12.375L18.1975 14.5L15 16.6313ZM27 5.5H5C4.46957 5.5 3.96086 5.71071 3.58579 6.08579C3.21071 6.46086 3 6.96957 3 7.5V21.5C3 22.0304 3.21071 22.5391 3.58579 22.9142C3.96086 23.2893 4.46957 23.5 5 23.5H27C27.5304 23.5 28.0391 23.2893 28.4142 22.9142C28.7893 22.5391 29 22.0304 29 21.5V7.5C29 6.96957 28.7893 6.46086 28.4142 6.08579C28.0391 5.71071 27.5304 5.5 27 5.5ZM27 21.5H5V7.5H27V21.5ZM29 26.5C29 26.7652 28.8946 27.0196 28.7071 27.2071C28.5196 27.3946 28.2652 27.5 28 27.5H4C3.73478 27.5 3.48043 27.3946 3.29289 27.2071C3.10536 27.0196 3 26.7652 3 26.5C3 26.2348 3.10536 25.9804 3.29289 25.7929C3.48043 25.6054 3.73478 25.5 4 25.5H28C28.2652 25.5 28.5196 25.6054 28.7071 25.7929C28.8946 25.9804 29 26.2348 29 26.5Z" fill="black"/>
</g>
</svg>
