<svg width="38" height="38" viewBox="0 0 38 38" fill="none" xmlns="http://www.w3.org/2000/svg">
<path d="M35.0552 14.8689C34.4366 14.2225 33.7968 13.5564 33.5556 12.9707C33.3325 12.4342 33.3194 11.545 33.3062 10.6837C33.2816 9.08242 33.2554 7.26789 31.9937 6.00625C30.7321 4.74461 28.9176 4.71836 27.3163 4.69375C26.455 4.68062 25.5658 4.6675 25.0293 4.44437C24.4452 4.2032 23.7775 3.56336 23.1311 2.94484C21.9991 1.85711 20.7128 0.625 19 0.625C17.2872 0.625 16.0026 1.85711 14.8689 2.94484C14.2225 3.56336 13.5564 4.2032 12.9707 4.44437C12.4375 4.6675 11.545 4.68062 10.6837 4.69375C9.08242 4.71836 7.26789 4.74461 6.00625 6.00625C4.74461 7.26789 4.72656 9.08242 4.69375 10.6837C4.68062 11.545 4.6675 12.4342 4.44437 12.9707C4.2032 13.5548 3.56336 14.2225 2.94484 14.8689C1.85711 16.0009 0.625 17.2872 0.625 19C0.625 20.7128 1.85711 21.9974 2.94484 23.1311C3.56336 23.7775 4.2032 24.4436 4.44437 25.0293C4.6675 25.5658 4.68062 26.455 4.69375 27.3163C4.71836 28.9176 4.74461 30.7321 6.00625 31.9937C7.26789 33.2554 9.08242 33.2816 10.6837 33.3062C11.545 33.3194 12.4342 33.3325 12.9707 33.5556C13.5548 33.7968 14.2225 34.4366 14.8689 35.0552C16.0009 36.1429 17.2872 37.375 19 37.375C20.7128 37.375 21.9974 36.1429 23.1311 35.0552C23.7775 34.4366 24.4436 33.7968 25.0293 33.5556C25.5658 33.3325 26.455 33.3194 27.3163 33.3062C28.9176 33.2816 30.7321 33.2554 31.9937 31.9937C33.2554 30.7321 33.2816 28.9176 33.3062 27.3163C33.3194 26.455 33.3325 25.5658 33.5556 25.0293C33.7968 24.4452 34.4366 23.7775 35.0552 23.1311C36.1429 21.9991 37.375 20.7128 37.375 19C37.375 17.2872 36.1429 16.0026 35.0552 14.8689ZM26.4911 15.9911L17.3036 25.1786C17.1817 25.3006 17.0369 25.3974 16.8776 25.4635C16.7183 25.5295 16.5475 25.5635 16.375 25.5635C16.2025 25.5635 16.0317 25.5295 15.8724 25.4635C15.7131 25.3974 15.5683 25.3006 15.4464 25.1786L11.5089 21.2411C11.2626 20.9948 11.1243 20.6608 11.1243 20.3125C11.1243 19.9642 11.2626 19.6302 11.5089 19.3839C11.7552 19.1376 12.0892 18.9993 12.4375 18.9993C12.7858 18.9993 13.1198 19.1376 13.3661 19.3839L16.375 22.3945L24.6339 14.1339C24.7558 14.012 24.9006 13.9152 25.0599 13.8492C25.2193 13.7832 25.39 13.7493 25.5625 13.7493C25.735 13.7493 25.9057 13.7832 26.0651 13.8492C26.2244 13.9152 26.3692 14.012 26.4911 14.1339C26.613 14.2559 26.7098 14.4006 26.7758 14.5599C26.8418 14.7193 26.8757 14.89 26.8757 15.0625C26.8757 15.235 26.8418 15.4057 26.7758 15.5651C26.7098 15.7244 26.613 15.8691 26.4911 15.9911Z" fill="#12E500"/>
</svg>
