<!DOCTYPE svg PUBLIC "-//W3C//DTD SVG 1.1//EN" "http://www.w3.org/Graphics/SVG/1.1/DTD/svg11.dtd">
<!-- Uploaded to: SVG Repo, www.svgrepo.com, Transformed by: SVG Repo Mixer Tools -->
<svg width="800px" height="800px" viewBox="0 -0.5 25 25" fill="none" xmlns="http://www.w3.org/2000/svg">
<g id="SVGRepo_bgCarrier" stroke-width="0"/>
<g id="SVGRepo_tracerCarrier" stroke-linecap="round" stroke-linejoin="round"/>
<g id="SVGRepo_iconCarrier"> <path fill-rule="evenodd" clip-rule="evenodd" d="M6.15707 8.82908C5.51555 8.1876 5.32363 7.22283 5.67079 6.38467C6.01796 5.5465 6.83585 5 7.74307 5C8.65028 5 9.46817 5.5465 9.81534 6.38467C10.1625 7.22283 9.97058 8.1876 9.32907 8.82908C8.45313 9.70497 7.033 9.70497 6.15707 8.82908Z" stroke="#626973" stroke-width="1.5" stroke-linecap="round" stroke-linejoin="round"/> <path fill-rule="evenodd" clip-rule="evenodd" d="M15.671 18.3431C15.0295 17.7016 14.8376 16.7369 15.1848 15.8987C15.5319 15.0605 16.3498 14.514 17.257 14.514C18.1643 14.514 18.9821 15.0605 19.3293 15.8987C19.6765 16.7369 19.4846 17.7016 18.843 18.3431C17.9671 19.219 16.547 19.219 15.671 18.3431V18.3431Z" stroke="#626973" stroke-width="1.5" stroke-linecap="round"/> <path d="M18.8431 5.6571L6.15607 18.3441" stroke="#626973" stroke-width="1.5" stroke-linecap="round"/> </g>
</svg>