<svg width="24" height="25" viewBox="0 0 24 25" fill="none" xmlns="http://www.w3.org/2000/svg">
<g id="fe:picture-square">
<path id="Vector" d="M5 5.5V19.5H19V5.5H5ZM5 3.5H19C19.5304 3.5 20.0391 3.71071 20.4142 4.08579C20.7893 4.46086 21 4.96957 21 5.5V19.5C21 20.0304 20.7893 20.5391 20.4142 20.9142C20.0391 21.2893 19.5304 21.5 19 21.5H5C4.46957 21.5 3.96086 21.2893 3.58579 20.9142C3.21071 20.5391 3 20.0304 3 19.5V5.5C3 4.96957 3.21071 4.46086 3.58579 4.08579C3.96086 3.71071 4.46957 3.5 5 3.5ZM8.5 10.5C8.89782 10.5 9.27936 10.342 9.56066 10.0607C9.84196 9.77936 10 9.39782 10 9C10 8.60218 9.84196 8.22064 9.56066 7.93934C9.27936 7.65804 8.89782 7.5 8.5 7.5C8.10218 7.5 7.72064 7.65804 7.43934 7.93934C7.15804 8.22064 7 8.60218 7 9C7 9.39782 7.15804 9.77936 7.43934 10.0607C7.72064 10.342 8.10218 10.5 8.5 10.5ZM7 14.5L9 12.5L11 14.5L14 11.5L17 14.5V17.5H7V14.5Z" fill="black"/>
</g>
</svg>
