<svg width="15" height="9" viewBox="0 0 15 9" fill="none" xmlns="http://www.w3.org/2000/svg">
<path d="M5.148 9L3.3 5.736H2.508V9H0.828V0.624H3.972C4.62 0.624 5.172 0.74 5.628 0.972C6.084 1.196 6.424 1.504 6.648 1.896C6.88 2.28 6.996 2.712 6.996 3.192C6.996 3.744 6.836 4.244 6.516 4.692C6.196 5.132 5.72 5.436 5.088 5.604L7.092 9H5.148ZM2.508 4.476H3.912C4.368 4.476 4.708 4.368 4.932 4.152C5.156 3.928 5.268 3.62 5.268 3.228C5.268 2.844 5.156 2.548 4.932 2.34C4.708 2.124 4.368 2.016 3.912 2.016H2.508V4.476ZM14.6235 3.216C14.6235 3.664 14.5155 4.084 14.2995 4.476C14.0915 4.868 13.7595 5.184 13.3035 5.424C12.8555 5.664 12.2875 5.784 11.5995 5.784H10.1955V9H8.5155V0.624H11.5995C12.2475 0.624 12.7995 0.736 13.2555 0.96C13.7115 1.184 14.0515 1.492 14.2755 1.884C14.5075 2.276 14.6235 2.72 14.6235 3.216ZM11.5275 4.428C11.9915 4.428 12.3355 4.324 12.5595 4.116C12.7835 3.9 12.8955 3.6 12.8955 3.216C12.8955 2.4 12.4395 1.992 11.5275 1.992H10.1955V4.428H11.5275Z" fill="#1F2937"/>
</svg>
